<svg xmlns="http://www.w3.org/2000/svg" xmlns:xlink="http://www.w3.org/1999/xlink" viewBox="0 0 2480.15 753.17"><defs><style>.cls-1{fill:url(#Adsız_degrade_202);}.cls-2{fill:url(#Adsız_degrade_202-2);}.cls-3{fill:url(#Adsız_degrade_202-3);}.cls-4{fill:url(#Adsız_degrade_202-4);}.cls-5{fill:url(#Adsız_degrade_202-5);}.cls-6{fill:url(#Adsız_degrade_202-6);}.cls-7{fill:#180635;}</style><linearGradient id="Adsız_degrade_202" x1="410.26" y1="1200.82" x2="922.63" y2="600.46" gradientUnits="userSpaceOnUse"><stop offset="0" stop-color="#661a91"/><stop offset="0.16" stop-color="#5d2495"/><stop offset="0.42" stop-color="#453e9f"/><stop offset="0.77" stop-color="#1e69af"/><stop offset="1" stop-color="#008bbc"/></linearGradient><linearGradient id="Adsız_degrade_202-2" x1="435.88" y1="1222.68" x2="948.25" y2="622.32" xlink:href="#Adsız_degrade_202"/><linearGradient id="Adsız_degrade_202-3" x1="442.73" y1="1228.54" x2="955.11" y2="628.18" xlink:href="#Adsız_degrade_202"/><linearGradient id="Adsız_degrade_202-4" x1="697.55" y1="985.73" x2="807.68" y2="856.69" xlink:href="#Adsız_degrade_202"/><linearGradient id="Adsız_degrade_202-5" x1="327.44" y1="1130.14" x2="839.81" y2="529.78" xlink:href="#Adsız_degrade_202"/><linearGradient id="Adsız_degrade_202-6" x1="504.3" y1="1281.08" x2="1016.68" y2="680.72" xlink:href="#Adsız_degrade_202"/></defs><g id="katman_3" data-name="katman 3"><path class="cls-1" d="M765.18,784.68s0,0,0,0a.11.11,0,0,0,.06.06l0,.07v0C765.46,785.25,765.18,784.74,765.18,784.68Z" transform="translate(-327.51 -511.68)"/><path class="cls-2" d="M849.1,1213.15a51.71,51.71,0,1,1-102.26-10.88v0a50.88,50.88,0,0,1,4.75-13.1c.62-1.78,1.21-3.57,1.8-5.36,7.24-22.06,20-44.88,23.47-68.41,2.92-19.77,3-40.09,3-60.67,0-45.16-4.31-91.15-27.19-133.39a.35.35,0,0,1-.05-.08.17.17,0,0,1,0-.05h0c-4-1.53-8.14-2.91-12.33-4.11-2.87-.82-5.76-1.58-8.68-2.22-10.9-2.46-22.81-1.73-34.44-1.73a154.38,154.38,0,0,0-40.65,5.42c-.15.3-.33.61-.51.9l-1.46,2.27a.1.1,0,0,1,0,.08c-14.65,23.24-19.77,40.09-19.77,62,0,15.74,11.82,31,15.5,45.63a42.45,42.45,0,0,1,3.38,16.53,42,42,0,1,1-83.8-4.25c.07-.76.17-1.5.28-2.24a41.78,41.78,0,0,1,2.76-9.77c3.74-14.67,15.92-30.05,15.92-45.9,0-20.32-11.83-46-21.69-64.49a51.65,51.65,0,0,1-5.55-13.4h0a51.38,51.38,0,0,1-1.63-12.91,52.11,52.11,0,0,1,1.29-11.53c1-4.53,3-8.66,4.77-12.81,1.11-2.55,1.49-3.2,2.09-4.83.27-.74.25-.71.38-1.06.86-2.46,1.72-4.92,2.52-7.39,6-18.23,14.34-36.14,17.18-55.58a350.92,350.92,0,0,0,4.15-50.85c0-37.32-5.18-71.57-21.4-107-1-2.27-1.59-4.73-2.42-7.09q-1.91-5.38-4-10.67a.06.06,0,0,0,0-.05c-.63-1.42-1.22-2.87-1.73-4.35A51.75,51.75,0,0,1,611.58,551c1,0,2.1,0,3.14.1a49.59,49.59,0,0,1,5.89.69,51.75,51.75,0,0,1,39.53,68.73c-.34.92-.71,1.82-1.09,2.71-15.2,38.68-28.92,79-28.92,123.09,0,42.17,12.88,84.31,27,121.66a151.68,151.68,0,0,0,19.42,3.89c2.55.35,5.11.62,7.7.83q6.38.54,12.9.54c20.2,0,36.31.94,54-6.09l.14-.06c9.68-10.91,20.11-42,20.11-51.64s-.52-22.26-6.07-30.66l0-.07a.11.11,0,0,1-.06-.06s0,0,0,0h0a41.71,41.71,0,0,1-8.79-17.82,42.8,42.8,0,0,1-.6-15,42,42,0,1,1,74.12,32.42c-7.74,11.3-6.94,19.07-6.94,30.76,0,14.1,3,31.23,12.15,44.16v0A51.94,51.94,0,0,1,846.94,902a51,51,0,0,1-6.17,17c-26.85,52.65-27,86.19-27,132.56,0,47.15-1,78,27.7,134.67a50.88,50.88,0,0,1,6.9,18.6A50.32,50.32,0,0,1,849.1,1213.15Z" transform="translate(-327.51 -511.68)"/><path class="cls-3" d="M751.52,866.64a2.52,2.52,0,0,1-.26.49l-.14.06A3,3,0,0,1,751.52,866.64Z" transform="translate(-327.51 -511.68)"/><path class="cls-4" d="M752.64,921.23a.09.09,0,0,1,0-.05h0A.17.17,0,0,0,752.64,921.23Z" transform="translate(-327.51 -511.68)"/><path class="cls-5" d="M600.69,1148.69a53.49,53.49,0,0,0-18.93-4.7h-.24c-.7,0-1.39-.06-2.1-.06a2.5,2.5,0,0,1-.47,0s0,0,0,0h-.14c-62.47-2.35-99.9-41.24-132.89-95-23.74-51.22-34.55-101.81-34.55-156.35,0-54.89,9.56-100.47,35-157A60.3,60.3,0,0,0,450,724.88,62.11,62.11,0,1,0,332.84,735.4c24.71,55.68,30.2,102.41,34.94,157.15,4.51,52.11-8.61,102.18-33.74,154.84l-1.1,2.31A62.07,62.07,0,0,0,384.21,1137c67.48,11.84,113.65,34.87,149.28,87.69a53,53,0,1,0,67.2-76ZM442.11,1042c.59.92,1.14,1.85,1.67,2.79C443.25,1043.82,442.69,1042.89,442.11,1042Z" transform="translate(-327.51 -511.68)"/><path class="cls-6" d="M1082.05,1054.22a62.09,62.09,0,1,1-117.06-11c31.71-77,32.36-102.17,32.36-157,0-53.69,3.07-85.08-30.08-152.52a1.14,1.14,0,0,0-.1-.19q-1.11-2.26-2.28-4.58l-.07-.18c-52.45-72-132-105-197.15-111.11H766.3a4,4,0,0,1-.49,0,50,50,0,0,1-9-1.06c-1.65-.35-3.28-.77-4.87-1.26a53,53,0,1,1,59.31-80.76c66.25,75.29,110.51,97.12,208.3,107.16.69,0,1.38,0,2.08,0A62.16,62.16,0,0,1,1082,718.44a60.4,60.4,0,0,1-3.64,10.64c-.4.83-.8,1.65-1.18,2.48-32.86,68.92-31,100.45-31,154.7,0,54.77-.65,82.56,32,156.87v0A61.44,61.44,0,0,1,1082.05,1054.22Z" transform="translate(-327.51 -511.68)"/><path class="cls-7" d="M1503.64,1029.24c0,7.88-3.85,11.83-12.05,11.83s-12-4-12-11.83V904.77H1319v124.47q0,11.82-11.57,11.83c-8.19,0-12.53-4-12.53-11.83V757.51c0-8.33,4.34-12.27,12.53-12.27,7.72,0,11.57,3.94,11.57,12.27V882.42h160.54V757.51c0-8.33,3.86-12.27,12-12.27s12.05,3.94,12.05,12.27Z" transform="translate(-327.51 -511.68)"/><path class="cls-7" d="M1638.14,1029.24V897.76L1535.45,763.21a13.15,13.15,0,0,1-2.89-7.45c0-6.14,5.78-10.52,12-10.52a13.57,13.57,0,0,1,10.13,5.26l95.45,122.71,95.45-122.71a13.55,13.55,0,0,1,10.13-5.26c6.26,0,12,4.38,12,10.52a13.17,13.17,0,0,1-2.9,7.45L1662.24,897.76v131.48c0,7.88-3.86,11.83-12,11.83S1638.14,1037.12,1638.14,1029.24Z" transform="translate(-327.51 -511.68)"/><path class="cls-7" d="M1938.47,905.21H1820.84v124c0,7.88-3.85,11.83-12,11.83s-12-4-12-11.83v-273c0-7.45,3.86-11,12-11h131.13c53.51,0,82.92,34.18,82.92,78.89S1993.43,905.21,1938.47,905.21ZM1939.92,768H1820.84V882.42h117.63c37.12,0,60.27-24.55,60.27-57.42S1975.11,768,1939.92,768Z" transform="translate(-327.51 -511.68)"/><path class="cls-7" d="M2009.83,1032.74c-2.41,5.7-5.31,8.33-10.13,8.33-8.19,0-13.5-5.26-13.5-10.08a16,16,0,0,1,1.45-6.14l109.92-270a15.52,15.52,0,0,1,14.46-9.64c6.27,0,12,3.07,14.46,9.64l109.92,270a16,16,0,0,1,1.44,6.14c0,4.82-5.3,10.08-13.5,10.08-4.82,0-7.71-2.63-10.12-8.33l-40-96.86H2049.84ZM2059,913.53h106.06l-53-128.85Z" transform="translate(-327.51 -511.68)"/><path class="cls-7" d="M2414.78,768h-95.46V1028.8c0,8.32-4.34,12.27-12.53,12.27-7.71,0-11.57-4-11.57-12.27V768h-95.94q-11.57,0-11.57-11.83c0-7.45,3.86-11,11.57-11h215.5c7.23,0,11.08,3.51,11.08,11C2425.86,764.09,2422,768,2414.78,768Z" transform="translate(-327.51 -511.68)"/><path class="cls-7" d="M2503,768v250.25h16.39q11.58,0,11.58,11.83c0,7.45-3.86,11-11.58,11h-55.92c-8.19,0-12.05-3.51-12.05-11,0-7.89,3.86-11.83,12.05-11.83h15.43V768h-15.43c-8.19,0-12.05-3.94-12.05-11.83,0-7.45,3.86-11,12.05-11h55.92c7.72,0,11.58,3.51,11.58,11q0,11.84-11.58,11.83Z" transform="translate(-327.51 -511.68)"/><path class="cls-7" d="M2579.64,1032.74c-2.41,5.7-5.3,8.33-10.13,8.33-8.19,0-13.49-5.26-13.49-10.08a16,16,0,0,1,1.44-6.14l109.92-270a15.53,15.53,0,0,1,14.46-9.64c6.27,0,12,3.07,14.46,9.64l109.92,270a16,16,0,0,1,1.45,6.14c0,4.82-5.31,10.08-13.5,10.08-4.82,0-7.72-2.63-10.13-8.33l-40-96.86H2619.65Zm49.17-119.21h106.06l-53-128.85Z" transform="translate(-327.51 -511.68)"/></g></svg>